<?xml version="1.0" encoding="UTF-8"?>
<svg id="Layer_1" xmlns="http://www.w3.org/2000/svg" version="1.1" viewBox="0 0 440 384">
  <!-- Generator: Adobe Illustrator 29.8.2, SVG Export Plug-In . SVG Version: 2.1.1 Build 3)  -->
  <defs>
    <style>
      .st0 {
        fill: #d9e9f0;
      }

      .st1 {
        fill: #e69915;
      }

      .st2 {
        fill: #d92020;
      }

      .st3 {
        fill: #019933;
      }

      .st4 {
        fill: #cbd5de;
      }

      .st5 {
        fill: #34425f;
      }

      .st6 {
        fill: #d5ac82;
      }

      .st7 {
        fill: #fff;
      }

      .st8 {
        fill: #04812e;
      }

      .st9 {
        fill: #eaf3f9;
      }

      .st10 {
        fill: #eebf90;
      }

      .st11 {
        fill: #f82e2e;
      }

      .st12 {
        fill: #faa515;
      }

      .st13 {
        fill: #394868;
      }

      .st14 {
        fill: #384868;
      }

      .st15 {
        fill: #3f4e6d;
      }
    </style>
  </defs>
  <rect class="st9" x=".64" y="-1" width="438.72" height="385"/>
  <g>
    <path class="st5" d="M315.48,301.15c3.33,7.23,6.55,14.65,10.73,21.42-.17.35-.07,1.31-.44,2.07-1.93,3.99-4.29,7.83-5.77,12.02h-.56c-2.98-6.02-6.07-12.01-9.04-18.04-2.57-5.22-6.74-11.92-7.91-17.47h12.99Z"/>
    <path class="st7" d="M177.67,77.38h132.72s0,45.66,0,45.66c-10.81,6.47-8.38,19.8-8.47,30.44-.43,48.58.36,97.19-.04,145.77-.31.78.53,1.57.61,1.91,1.16,5.55,5.34,12.25,7.91,17.47-57.21-.47-114.48.62-171.69,0V123.6c2.38.18,3.72-.32,5.65-.56,22.97-2.87,38.07-22.55,33.32-45.66ZM190.1,178.84c1.94,2.21,2.85,2.79,5.08,4.51,16.94,13.05,40.45,11.94,54.78-4.51,18.99-21.79,9.55-56.11-18.07-64.55-2.53-.77-10.36-2.68-12.43-1.4-1.87-.99-5.76-.1-7.82.37-29.78,6.75-41.89,42.37-21.55,65.58ZM152.66,215.03c-3.86,2.18-3.02,7.43,1.56,7.79h109.59c5.03-.17,5.55-7.29.58-7.93l-111.73.15ZM276.91,215.03c-3.52.81-3.6,6.5-.44,7.52,1.4.45,8.92.52,10.47.23,3.75-.71,3.97-6.74.46-7.76-1.28-.37-9.07-.32-10.49,0ZM153.81,238.72c-5.28.94-4.9,7.89.42,8.33h109.59c6.35-.73,5.22-8.92-1.12-8.49l-108.89.16ZM277.47,238.7c-4.08.91-4.37,6.62-.95,8.04,2.47,1.02,11.77.97,13.12-2.1,2.95-6.76-8.17-6.83-12.16-5.94ZM153.23,262.94c-4.28,1.18-4.03,7.22.41,7.8h110.75c4.97-.65,4.45-7.76-.58-7.93l-110.59.13ZM288.79,270c2.08-1.93,1.39-6.02-1.52-6.93s-11.86-1.07-12.91,2.41c-2.22,7.37,11.9,6.87,14.43,4.52ZM153.23,287.18c-4.48.99-3.77,7.72,1,7.78l110.17.02c4.6-.6,5.09-7.28-.58-7.93l-110.59.13ZM276.91,287.18c-3.52.81-3.6,6.5-.44,7.52,1.4.45,8.92.52,10.47.23,3.75-.71,3.97-6.74.46-7.76-1.28-.37-9.07-.32-10.49,0Z"/>
    <path class="st3" d="M144.92,48.63c14.76-.91,29.94,15.05,32.76,28.75,4.75,23.1-10.35,42.79-33.32,45.66-25.87-5.64-39.18-33.94-25.3-57.1,4.77-7.96,16.36-16.72,25.87-17.3ZM157.76,69.02c-3.74.77-19.34,20-23.93,22.97-1.17.21-6.79-6.79-8.39-7.85-3.99-2.65-7.95.92-6.07,5.5.33.8,10.41,11.01,11.46,11.67,1.57.99,3.26,1.27,5.05.58l26.48-26.55c1.96-3.26-.9-7.08-4.59-6.31Z"/>
    <path class="st12" d="M336.94,153.47c.47,49.21-.35,98.47,0,147.68h-21.46c.36-49.21-.48-98.47,0-147.68h21.46Z"/>
    <path class="st4" d="M138.7,123.6v195.03c-1.67-.02-8.13.41-8.79-.53l-.25-196.19c2.22.6,6.85,1.53,9.04,1.69Z"/>
    <path class="st8" d="M144.92,48.63c-9.5.58-21.1,9.35-25.87,17.3-13.87,23.16-.56,51.46,25.3,57.1-1.93.24-3.27.74-5.65.56-2.19-.16-6.81-1.09-9.04-1.69-29.54-7.97-36.11-49.37-10.92-66.98,7.19-5.03,17.36-8.38,26.17-6.3Z"/>
    <path class="st11" d="M336.94,153.47h-21.46c.06-6.44-1.12-17.44,1.59-22.93,1.84-3.72,5.45-6.11,8.57-8.64,13.93,5.08,11.18,19.74,11.3,31.57Z"/>
    <path class="st2" d="M325.64,121.91c-3.12,2.52-6.73,4.91-8.57,8.64-2.72,5.49-1.53,16.49-1.59,22.93h-13.55c.09-10.64-2.34-23.97,8.47-30.44,4.51-2.7,10.42-2.89,15.25-1.13Z"/>
    <path class="st13" d="M336.94,301.15c-2.84,7.48-7.26,14.27-10.73,21.42-4.19-6.76-7.4-14.19-10.73-21.42h21.46Z"/>
    <path class="st1" d="M315.48,153.47c-.48,49.21.36,98.47,0,147.68h-12.99c-.07-.34-.92-1.12-.61-1.91.4-48.59-.39-97.2.04-145.77h13.55Z"/>
    <path class="st13" d="M249.96,178.84c-.92-2.45-1.6-4.4-2.82-6.76-5.59-10.78-13.4-11.02-24.29-11.27v-.56c12.75-3.42,15.36-27.95-1.69-29.87-.14-.02-.57-.6-1.37-.59-16.63.12-16.6,26.48-2.59,31.03-9.92.23-16.8.09-23.16,9.02-1.45.3-1.16-.7-1.53-1.54-8.69-19.52.23-42.82,19.39-51.94,2.95-1.4,5.05-1.91,7.56-3.45,2.07-1.28,9.9.63,12.43,1.4,27.62,8.44,37.05,42.76,18.07,64.55Z"/>
    <path class="st11" d="M247.14,172.07c1.22,2.36,1.91,4.31,2.82,6.76-14.34,16.45-37.84,17.56-54.78,4.51,1.5-7.27,7.94-13.81,15.13-15.62,5.72-1.44,24.12-1.36,29.64.52,2.6.89,4.72,2.71,7.18,3.82Z"/>
    <path class="st15" d="M153.81,238.72l108.89-.16c6.34-.43,7.47,7.76,1.12,8.49h-109.59c-5.31-.44-5.69-7.4-.42-8.33Z"/>
    <path class="st13" d="M153.23,262.94l110.59-.13c5.03.17,5.55,7.29.58,7.93h-110.75c-4.44-.58-4.69-6.62-.41-7.8Z"/>
    <path class="st14" d="M152.66,215.03l111.73-.15c4.97.65,4.45,7.76-.58,7.93h-109.59c-4.58-.36-5.42-5.61-1.56-7.79Z"/>
    <path class="st14" d="M153.23,287.18l110.59-.13c5.67.65,5.18,7.33.58,7.93l-110.17-.02c-4.77-.07-5.47-6.79-1-7.78Z"/>
    <path class="st5" d="M219.47,112.89c-2.5,1.54-4.61,2.05-7.56,3.45-19.16,9.12-28.08,32.42-19.39,51.94.38.84.08,1.84,1.53,1.54-2.1,2.96-2.65,5.74-3.95,9.02-20.34-23.21-8.23-58.83,21.55-65.58,2.06-.47,5.95-1.36,7.82-.37Z"/>
    <path class="st2" d="M217.21,160.8c1.13-.03,2.26,0,3.39,0,.38,0,.75,0,1.13,0s.75,0,1.13,0c10.88.25,18.69.5,24.29,11.27-2.47-1.11-4.58-2.93-7.18-3.82-5.53-1.89-23.92-1.96-29.64-.52-7.19,1.81-13.63,8.35-15.13,15.62-2.23-1.72-3.15-2.3-5.08-4.51,1.31-3.28,1.85-6.06,3.95-9.02,6.36-8.93,13.24-8.79,23.16-9.02Z"/>
    <path class="st15" d="M277.47,238.7c3.99-.89,15.12-.82,12.16,5.94-1.34,3.08-10.65,3.13-13.12,2.1-3.42-1.42-3.13-7.13.95-8.04Z"/>
    <path class="st13" d="M288.79,270c-2.53,2.35-16.65,2.85-14.43-4.52,1.05-3.48,10.13-3.27,12.91-2.41s3.6,5,1.52,6.93Z"/>
    <path class="st13" d="M276.91,215.03c1.42-.33,9.21-.38,10.49,0,3.51,1.02,3.29,7.05-.46,7.76-1.54.29-9.07.22-10.47-.23-3.17-1.02-3.09-6.71.44-7.52Z"/>
    <path class="st13" d="M276.91,287.18c1.42-.33,9.21-.38,10.49,0,3.51,1.02,3.29,7.05-.46,7.76-1.54.29-9.07.22-10.47-.23-3.17-1.02-3.09-6.71.44-7.52Z"/>
    <path class="st0" d="M157.76,69.02c3.69-.76,6.56,3.05,4.59,6.31l-26.48,26.55c-1.79.7-3.48.41-5.05-.58-1.05-.66-11.13-10.88-11.46-11.67-1.88-4.57,2.08-8.15,6.07-5.5,1.6,1.06,7.22,8.06,8.39,7.85,4.59-2.98,20.19-22.2,23.93-22.97Z"/>
    <path class="st10" d="M222.86,160.23c-.44.12-.92.01-1.13.56-.38,0-.75,0-1.13,0-.34-1.81-2.61-2.21-3.95-3.67-5.03-5.44-6.57-17-1.38-22.79,1.69-1.88,4.04-2.44,5.9-3.98,17.05,1.93,14.45,26.46,1.69,29.87Z"/>
    <path class="st6" d="M221.16,130.36c-1.85,1.54-4.21,2.1-5.9,3.98-5.19,5.79-3.65,17.35,1.38,22.79,1.34,1.45,3.62,1.85,3.95,3.67-1.13,0-2.26-.03-3.39,0-14.01-4.55-14.05-30.91,2.59-31.03.8,0,1.23.58,1.37.59Z"/>
    <path class="st6" d="M222.86,160.23v.56c-.38,0-.75,0-1.13,0,.21-.55.69-.45,1.13-.56Z"/>
  </g>
</svg>